<?xml version="1.0" standalone="no"?>
<!DOCTYPE svg PUBLIC "-//W3C//DTD SVG 20010904//EN"
 "http://www.w3.org/TR/2001/REC-SVG-20010904/DTD/svg10.dtd">
<svg version="1.0" xmlns="http://www.w3.org/2000/svg"
 width="500.000000pt" height="500.000000pt" viewBox="0 0 500.000000 500.000000"
 preserveAspectRatio="xMidYMid meet">

<g transform="translate(0.000000,500.000000) scale(0.100000,-0.100000)"
fill="#000000" stroke="none">
<path d="M2380 4534 c-372 -23 -693 -130 -996 -332 -497 -332 -813 -842 -885
-1425 -19 -159 -7 -463 25 -620 33 -160 99 -362 161 -491 116 -243 369 -553
580 -711 421 -316 950 -463 1445 -401 543 68 995 322 1339 751 92 114 152 211
226 360 118 240 175 451 196 725 27 358 -36 692 -191 1018 -281 587 -865 1015
-1510 1106 -112 15 -300 25 -390 20z m-883 -1351 c11 -10 38 -40 60 -68 37
-47 73 -99 243 -346 36 -52 89 -129 118 -170 46 -65 140 -198 259 -368 21 -29
58 -81 83 -115 84 -116 111 -159 106 -173 -4 -11 -31 -13 -123 -11 l-117 3
-138 180 c-76 99 -209 272 -296 384 -86 111 -160 208 -164 214 -4 6 -10 9 -13
5 -3 -3 -6 -173 -6 -378 0 -229 -4 -380 -10 -391 -8 -17 -23 -19 -114 -19 -57
0 -110 3 -119 6 -14 6 -16 70 -16 625 0 578 1 619 18 628 9 6 60 11 113 11 78
0 101 -3 116 -17z m627 11 c45 -7 51 -11 105 -83 51 -66 287 -402 436 -619 27
-41 59 -86 70 -102 11 -15 51 -72 89 -127 38 -54 103 -144 144 -201 41 -59 71
-110 68 -118 -4 -11 -29 -14 -114 -14 l-108 0 -30 33 c-43 45 -115 144 -303
417 -90 129 -171 246 -181 260 -10 14 -85 120 -166 235 -81 116 -160 226 -176
246 -48 63 -38 74 73 78 25 0 67 -2 93 -5z m768 -29 c27 -34 124 -161 257
-335 52 -69 149 -195 215 -280 l121 -155 5 395 5 394 25 7 c44 12 205 10 218
-3 9 -9 12 -162 12 -629 0 -553 -2 -617 -16 -623 -9 -3 -62 -6 -118 -6 l-102
0 -30 33 c-38 40 -124 156 -200 268 -72 107 -365 524 -531 757 -68 95 -123
179 -123 186 0 23 18 26 132 23 105 -2 107 -3 130 -32z"/>
</g>
</svg>
